# xmcd CD database file
#
# Track frame offsets:
#	183
#	33908
#	44835
#	81888
#	93720
#	102688
#	106143
#	107625
#	109363
#	114293
#	128248
#	150875
#	175515
#	185608
#	199908
#
# Disc length: 3125 seconds
#
# Revision: 0
# Processed by: cddbd v1.5.2PL0 Copyright (c) Steve Scherf et al.
# Submitted via: CDex 1.70beta2
#
DISCID=c70c330f
DTITLE=Umberto Petrin - Ooze
DYEAR=1992
DGENRE=Jazz
TTITLE0=Street woman
TTITLE1=There's no hurry
TTITLE2=Round about Midnight-Evidence
TTITLE3=Un verso di Éluard
TTITLE4=Die doppelte Hand
TTITLE5=Dripping n. 1
TTITLE6=Tachisme
TTITLE7=Dripping n.2
TTITLE8=Dripping n.3
TTITLE9=Femmes du siècle
TTITLE10=Mesty
TTITLE11=Tapes to Tàpies
TTITLE12=Lo spazio curvo
TTITLE13=Feel the crew-Los Angeles '92
TTITLE14=Our prayer
EXTD=YEAR: 1992
EXTT0=
EXTT1=
EXTT2=
EXTT3=
EXTT4=
EXTT5=
EXTT6=
EXTT7=
EXTT8=
EXTT9=
EXTT10=
EXTT11=
EXTT12=
EXTT13=
EXTT14=
PLAYORDER=
